<?xml version="1.0" standalone="no"?>
<!DOCTYPE svg PUBLIC "-//W3C//DTD SVG 20010904//EN"
 "http://www.w3.org/TR/2001/REC-SVG-20010904/DTD/svg10.dtd">
<svg version="1.0" xmlns="http://www.w3.org/2000/svg"
 width="400.000000pt" height="400.000000pt" viewBox="0 0 400.000000 400.000000"
 preserveAspectRatio="xMidYMid meet">
<metadata>
Created by potrace 1.11, written by Peter Selinger 2001-2013
</metadata>
<g transform="translate(0.000000,400.000000) scale(0.100000,-0.100000)"
fill="#000000" stroke="none">
<path d="M2301 3985 c4 -13 -12 -134 -26 -200 -4 -16 -8 -46 -10 -65 -1 -19
-4 -35 -5 -35 -1 0 -3 -11 -5 -25 -2 -14 -6 -43 -10 -65 -3 -22 -9 -58 -12
-80 -13 -102 -17 -110 -49 -109 -16 1 -47 4 -69 8 -67 11 -88 14 -126 19 -38
5 -111 17 -144 23 -19 4 -55 9 -130 19 -16 2 -59 9 -95 15 -36 6 -81 13 -100
15 -46 7 -90 14 -115 19 -11 2 -45 7 -75 11 -30 4 -64 9 -75 12 -11 3 -30 5
-42 4 -12 0 -25 4 -28 9 -4 6 -10 8 -16 5 -5 -3 -35 -1 -66 4 -32 6 -78 13
-103 16 -25 3 -56 8 -70 12 -14 3 -42 7 -63 9 -20 2 -42 6 -47 9 -17 10 -11
-6 12 -35 13 -16 34 -45 48 -65 14 -21 33 -46 43 -56 9 -10 17 -22 17 -27 0
-4 11 -19 25 -34 14 -15 25 -30 25 -32 0 -3 7 -14 15 -23 8 -10 46 -61 84
-113 63 -86 68 -96 53 -108 -9 -7 -26 -20 -37 -30 -11 -9 -37 -28 -58 -42 -20
-14 -37 -28 -37 -32 0 -5 -4 -8 -10 -8 -7 0 -122 -81 -195 -138 -5 -4 -62 -46
-125 -92 -63 -47 -162 -120 -220 -162 -58 -43 -116 -86 -129 -96 -14 -9 -62
-45 -108 -79 -46 -35 -87 -63 -91 -63 -4 0 -14 -9 -22 -20 -8 -11 -18 -20 -23
-20 -4 0 -13 -5 -20 -10 -7 -6 -23 -18 -36 -28 -15 -12 -19 -19 -10 -20 15 -1
72 -9 104 -16 11 -2 45 -7 75 -11 30 -4 64 -9 75 -11 51 -10 82 -15 119 -20
136 -15 209 -31 201 -44 -2 -4 -7 -23 -10 -41 -2 -19 -9 -61 -15 -94 -5 -33
-12 -82 -14 -109 -3 -26 -9 -71 -15 -100 -5 -28 -13 -76 -17 -106 -4 -30 -8
-57 -9 -60 -1 -3 -5 -30 -9 -60 -5 -30 -10 -63 -12 -74 -2 -10 -6 -44 -10 -75
-3 -31 -8 -58 -9 -61 -2 -3 -6 -29 -10 -59 -4 -30 -8 -61 -10 -70 -4 -21 -16
-99 -20 -131 -6 -45 -16 -114 -22 -145 -2 -16 -6 -41 -8 -55 -6 -52 -16 -115
-20 -128 -4 -10 0 -10 17 -1 12 6 27 16 32 21 6 5 40 30 76 56 36 25 67 49 70
52 3 3 28 20 55 39 28 19 57 40 65 48 44 38 153 113 165 113 7 0 37 -34 67
-75 120 -170 280 -391 293 -407 7 -9 22 -29 32 -45 10 -15 22 -32 26 -38 5 -5
60 -82 123 -170 63 -88 121 -168 129 -178 8 -9 15 -20 15 -23 0 -2 5 -10 10
-17 10 -11 23 -29 104 -140 29 -40 39 -41 43 -4 6 56 13 109 28 192 9 50 18
106 20 125 2 19 6 46 9 60 3 14 9 45 12 70 8 61 12 79 18 89 3 4 40 2 83 -6
43 -8 94 -16 113 -18 19 -2 36 -4 38 -5 1 -2 10 -3 20 -4 9 -1 36 -6 60 -10
23 -4 52 -9 65 -11 47 -7 84 -13 142 -24 33 -6 76 -13 95 -16 19 -2 49 -7 65
-10 33 -6 70 -11 129 -21 21 -3 48 -8 60 -11 11 -2 28 -5 36 -5 8 0 33 -4 55
-8 22 -5 60 -12 85 -15 79 -12 84 -13 125 -20 22 -3 78 -13 125 -21 111 -18
114 -18 93 5 -10 10 -34 42 -53 71 -19 28 -40 57 -45 63 -13 15 -176 242 -190
265 -5 9 -18 25 -27 36 -21 24 -22 32 -5 46 13 12 317 231 460 333 49 34 97
69 107 77 10 8 28 22 40 30 18 13 104 74 175 126 11 8 76 55 145 105 69 49
142 102 162 117 45 32 47 42 11 43 -16 0 -35 2 -43 4 -15 3 -85 14 -125 21
-51 7 -105 16 -160 25 -33 6 -73 13 -89 15 -15 2 -35 6 -45 8 -9 3 -33 6 -53
8 -35 2 -38 4 -38 33 0 16 5 48 9 70 5 22 12 60 15 85 7 53 10 71 32 200 12
68 23 139 28 170 5 36 19 131 21 140 2 9 16 94 20 120 7 41 36 222 41 255 3
17 7 44 10 60 2 17 7 41 9 55 3 14 7 43 10 65 2 22 7 51 9 65 10 51 16 100 12
100 -3 0 -11 -6 -18 -12 -26 -24 -97 -78 -103 -78 -3 0 -11 -5 -18 -10 -27
-23 -56 -46 -77 -60 -12 -8 -76 -55 -143 -103 l-122 -89 -18 24 c-10 13 -27
33 -38 46 -10 12 -19 25 -19 30 0 4 -22 35 -48 69 -26 34 -65 88 -87 119 -22
31 -44 62 -50 68 -5 7 -14 19 -20 28 -24 39 -240 333 -247 336 -4 2 -8 10 -8
18 0 8 -4 14 -10 14 -5 0 -10 4 -10 10 0 5 -7 18 -15 27 -8 10 -64 88 -126
173 -106 148 -153 207 -148 185z"/>
</g>
</svg>
