<?xml version="1.0" encoding="UTF-8"?>
<svg id="Layer_1" data-name="Layer 1" xmlns="http://www.w3.org/2000/svg" viewBox="0 0 383 381.88">
  <defs>
    <style>
      .cls-1 {
        fill: #f5921e;
      }

      .cls-2 {
        fill: #010100;
      }

      .cls-3 {
        fill: #f4911e;
      }
    </style>
  </defs>
  <rect class="cls-2" x="140.56" y="56.79" width="100.71" height="276.92" transform="translate(-4.33 386.16) rotate(-90)"/>
  <rect class="cls-2" x="145.27" y="60.82" width="100.71" height="271.39" transform="translate(189.01 -80.69) rotate(43.5)"/>
  <rect class="cls-2" x="139.1" y="54.4" width="100.71" height="274.26" transform="translate(-79.94 190.06) rotate(-45)"/>
  <rect class="cls-2" x="132.84" y="52.1" width="100.71" height="273.7"/>
  <path class="cls-3" d="m192.76,324.93c-.85-27.07-1.72-54.14-2.52-81.21-.47-15.95-.82-31.9-.97-48.47,1.9.55,3.54,1.71,5.19,2.88,21.06,19.85,42.11,39.72,63.19,59.55,22.66,21.33,45.36,42.62,68.03,63.94.71.67,1.35,1.4,1.9,3.67-8.02,0-16.04,0-24.78.08-1.42.17-2.12.27-3.24.25-1.87-.03-3.32.05-5.08.04-.74.03-1.16.15-2.03.2-3.48-.01-6.52.05-10,0-3.15-.02-5.86.05-8.56.12-3.46.11-6.92.21-11.19.38-3.8.23-6.8.39-10.25.49-3.48-.01-6.52.04-10,0-3.15-.02-5.86.06-8.56.14-3.46.1-6.92.21-11.18.37-3.46.2-6.12.33-8.79.47-6.65-.05-13.3-.09-20.36-.56-.54-1.06-.67-1.71-.8-2.35Z"/>
  <path class="cls-3" d="m256.25,125.33c15.23-15.56,30.29-31.29,45.74-46.63,8.24-8.18,17.13-15.68,25.61-23.39,0,5.01-.13,11.5.02,17.98.85,37.39,1.77,74.78,2.64,112.17.01.48-.2.97-.86,1.82-3.54.47-6.53.57-9.94.6-2.14-.02-3.85.03-6.02,0-4.82-.03-9.19.04-14.02.07-17.54.25-34.61.64-51.68.8-16.92.16-33.84.1-50.91-.2.24-1.03.49-1.84,1.02-2.39,11.69-12.09,23.44-24.12,35.1-36.24,7.83-8.14,15.54-16.39,23.3-24.6Z"/>
  <path class="cls-1" d="m189.91,188.81c-.28-1.07-.78-2.14-.8-3.21-.45-28.25-.79-56.51-1.26-84.76-.33-19.76-.85-39.52-1.37-60.02-.18-1.76-.27-2.77-.25-4.21.04-1.87-.04-3.33.03-5.17-.03-1.76-.19-3.13-.28-4.95.02-4.49-.04-8.51,0-12.99.03-4.15-.04-7.85-.1-11.55.95-3.97,2.3-.75,3.07-.03,7.97,7.54,15.87,15.16,23.77,22.77,23.48,22.59,46.95,45.19,70.87,68.22-10.13,10.42-20.17,20.76-30.66,31.53-21.3,21.75-42.15,43.06-63.01,64.37Z"/>
  <path class="cls-1" d="m99.74,278.86c-14.46,14.25-28.91,28.51-43.38,42.75-1.25,1.23-2.56,2.38-4.51,4.19v-133.83c38.04,0,76.07,0,115.02.07,6.62.02,12.31-.03,18.01-.08.1.84.2,1.69-.14,2.92-28.63,28.26-56.82,56.12-85.01,83.98Z"/>
  <path class="cls-3" d="m369.89,191.93h12.4c.24.39.47.77.71,1.16-30.74,30.35-61.47,60.7-92.63,91.47-31.11-29.31-61.93-58.35-93.17-87.84-1.38-2.23-2.34-3.99-2.84-5.69,42.15.34,83.84.61,125.97.98,16.81.04,33.19-.02,49.57-.08Z"/>
  <path class="cls-3" d="m118.88,187.98c-23.46.09-46.92.18-71.2.39-16.44.18-32.06.25-47.68.31.81-1.35,1.39-2.93,2.47-4.02,28.09-28.35,56.24-56.64,84.37-84.96,2.2-2.22,4.32-4.53,6.98-7.33,23.28,24.47,46.27,48.63,69.67,73.28,6.56,6.83,12.7,13.17,18.85,19.51.41.62.82,1.24.85,2.18-6.02.42-11.66.52-17.77.54-5.82-.02-11.17.03-16.99-.01-10.16-.03-19.86.04-29.55.1Z"/>
  <path class="cls-3" d="m186.72,199.33c.41,19.62.76,39.23,1.23,58.85.55,22.95,1.2,45.9,1.77,69.77,0,18.6.01,36.27.03,53.94-1.06-.66-2.29-1.15-3.16-2-23.72-23.37-47.46-46.73-71.07-70.21-6.84-6.8-13.32-13.97-20.39-21.42,1.71-1.78,4.07-4.25,6.9-7.14,26.96-26.73,53.44-53.06,79.99-79.31,1.2-1.19,3.11-1.66,4.69-2.47Z"/>
  <path class="cls-3" d="m165.45,163.74c-25.98-27.43-51.95-54.87-77.93-82.3-10.17-10.74-20.34-21.48-31.64-33.42,43.28,1.38,85.19,2.72,128.04,4.08.27,6.93.67,13.63.77,20.33.46,29.46.8,58.92,1.26,88.37.11,6.82.57,13.63.67,20.44.01.92,1.5,3.89-2.34,2.06-6.55-6.86-12.69-13.22-18.84-19.57Z"/>
</svg>